{"asset":{"generator":"3D Builder","version":"2.0"},"scene":0,"scenes":[{"nodes":[0]}],"nodes":[{"mesh":0,"matrix":[0.99999994039535522,0,0,0,0,-1.1920928244535389E-7,-0.99999982118606567,0,0,0.99999982118606567,-1.1920928244535389E-7,0,0,0.047299489378929138,-5.6385394131552857E-9,1]}],"meshes":[{"primitives":[{"attributes":{"POSITION":0,"TEXCOORD_0":20},"mode":4,"indices":40,"material":0},{"attributes":{"POSITION":1,"TEXCOORD_0":21},"mode":4,"indices":41,"material":1},{"attributes":{"POSITION":2,"TEXCOORD_0":22},"mode":4,"indices":42,"material":2},{"attributes":{"POSITION":3,"TEXCOORD_0":23},"mode":4,"indices":43,"material":3},{"attributes":{"POSITION":4,"TEXCOORD_0":24},"mode":4,"indices":44,"material":4},{"attributes":{"POSITION":5,"TEXCOORD_0":25},"mode":4,"indices":45,"material":5},{"attributes":{"POSITION":6,"TEXCOORD_0":26},"mode":4,"indices":46,"material":6},{"attributes":{"POSITION":7,"TEXCOORD_0":27},"mode":4,"indices":47,"material":7},{"attributes":{"POSITION":8,"TEXCOORD_0":28},"mode":4,"indices":48,"material":8},{"attributes":{"POSITION":9,"TEXCOORD_0":29},"mode":4,"indices":49,"material":9},{"attributes":{"POSITION":10,"TEXCOORD_0":30},"mode":4,"indices":50,"material":10},{"attributes":{"POSITION":11,"TEXCOORD_0":31},"mode":4,"indices":51,"material":11},{"attributes":{"POSITION":12,"TEXCOORD_0":32},"mode":4,"indices":52,"material":12},{"attributes":{"POSITION":13,"TEXCOORD_0":33},"mode":4,"indices":53,"material":13},{"attributes":{"POSITION":14,"TEXCOORD_0":34},"mode":4,"indices":54,"material":14},{"attributes":{"POSITION":15,"TEXCOORD_0":35},"mode":4,"indices":55,"material":15},{"attributes":{"POSITION":16,"TEXCOORD_0":36},"mode":4,"indices":56,"material":16},{"attributes":{"POSITION":17,"COLOR_0":37},"mode":4,"indices":57},{"attributes":{"POSITION":18,"COLOR_0":38},"mode":4,"indices":58},{"attributes":{"POSITION":19,"COLOR_0":39},"mode":4,"indices":59}]}],"materials":[{"pbrMetallicRoughness":{"baseColorFactor":[1,1,1,1],"metallicFactor":0,"roughnessFactor":1,"baseColorTexture":{"index":0,"texCoord":0}},"alphaMode":"OPAQUE"},{"pbrMetallicRoughness":{"baseColorFactor":[1,1,1,1],"metallicFactor":0,"roughnessFactor":1,"baseColorTexture":{"index":1,"texCoord":0}},"alphaMode":"OPAQUE"},{"pbrMetallicRoughness":{"baseColorFactor":[1,1,1,1],"metallicFactor":0,"roughnessFactor":1,"baseColorTexture":{"index":2,"texCoord":0}},"alphaMode":"OPAQUE"},{"pbrMetallicRoughness":{"baseColorFactor":[1,1,1,1],"metallicFactor":0,"roughnessFactor":1,"baseColorTexture":{"index":3,"texCoord":0}},"alphaMode":"OPAQUE"},{"pbrMetallicRoughness":{"baseColorFactor":[1,1,1,1],"metallicFactor":0,"roughnessFactor":1,"baseColorTexture":{"index":4,"texCoord":0}},"alphaMode":"OPAQUE"},{"pbrMetallicRoughness":{"baseColorFactor":[1,1,1,1],"metallicFactor":0,"roughnessFactor":1,"baseColorTexture":{"index":5,"texCoord":0}},"alphaMode":"OPAQUE"},{"pbrMetallicRoughness":{"baseColorFactor":[1,1,1,1],"metallicFactor":0,"roughnessFactor":1,"baseColorTexture":{"index":6,"texCoord":0}},"alphaMode":"OPAQUE"},{"pbrMetallicRoughness":{"baseColorFactor":[1,1,1,1],"metallicFactor":0,"roughnessFactor":1,"baseColorTexture":{"index":7,"texCoord":0}},"alphaMode":"OPAQUE"},{"pbrMetallicRoughness":{"baseColorFactor":[1,1,1,1],"metallicFactor":0,"roughnessFactor":1,"baseColorTexture":{"index":8,"texCoord":0}},"alphaMode":"OPAQUE"},{"pbrMetallicRoughness":{"baseColorFactor":[1,1,1,1],"metallicFactor":0,"roughnessFactor":1,"baseColorTexture":{"index":9,"texCoord":0}},"alphaMode":"OPAQUE"},{"pbrMetallicRoughness":{"baseColorFactor":[1,1,1,1],"metallicFactor":0,"roughnessFactor":1,"baseColorTexture":{"index":10,"texCoord":0}},"alphaMode":"OPAQUE"},{"pbrMetallicRoughness":{"baseColorFactor":[1,1,1,1],"metallicFactor":0,"roughnessFactor":1,"baseColorTexture":{"index":11,"texCoord":0}},"alphaMode":"OPAQUE"},{"pbrMetallicRoughness":{"baseColorFactor":[1,1,1,1],"metallicFactor":0,"roughnessFactor":1,"baseColorTexture":{"index":12,"texCoord":0}},"alphaMode":"OPAQUE"},{"pbrMetallicRoughness":{"baseColorFactor":[1,1,1,1],"metallicFactor":0,"roughnessFactor":1,"baseColorTexture":{"index":13,"texCoord":0}},"alphaMode":"OPAQUE"},{"pbrMetallicRoughness":{"baseColorFactor":[1,1,1,1],"metallicFactor":0,"roughnessFactor":1,"baseColorTexture":{"index":14,"texCoord":0}},"alphaMode":"OPAQUE"},{"pbrMetallicRoughness":{"baseColorFactor":[1,1,1,1],"metallicFactor":0,"roughnessFactor":1,"baseColorTexture":{"index":15,"texCoord":0}},"alphaMode":"OPAQUE"},{"pbrMetallicRoughness":{"baseColorFactor":[1,1,1,1],"metallicFactor":0,"roughnessFactor":1,"baseColorTexture":{"index":16,"texCoord":0}},"alphaMode":"OPAQUE"}],"textures":[{"source":0,"sampler":0},{"source":1,"sampler":0},{"source":2,"sampler":0},{"source":3,"sampler":0},{"source":4,"sampler":0},{"source":5,"sampler":0},{"source":6,"sampler":0},{"source":7,"sampler":0},{"source":8,"sampler":0},{"source":9,"sampler":0},{"source":10,"sampler":0},{"source":11,"sampler":0},{"source":12,"sampler":0},{"source":13,"sampler":0},{"source":14,"sampler":0},{"source":15,"sampler":0},{"source":16,"sampler":0}],"images":[{"uri":"scene_mesh_textured_material_00_map_Kd.jpg.jpeg"},{"uri":"scene_mesh_textured_material_01_map_Kd.jpg.jpeg"},{"uri":"scene_mesh_textured_material_02_map_Kd.jpg.jpeg"},{"uri":"scene_mesh_textured_material_03_map_Kd.jpg.jpeg"},{"uri":"scene_mesh_textured_material_04_map_Kd.jpg.jpeg"},{"uri":"scene_mesh_textured_material_05_map_Kd.jpg.jpeg"},{"uri":"scene_mesh_textured_material_06_map_Kd.jpg.jpeg"},{"uri":"scene_mesh_textured_material_07_map_Kd.jpg.jpeg"},{"uri":"scene_mesh_textured_material_08_map_Kd.jpg.jpeg"},{"uri":"scene_mesh_textured_material_09_map_Kd.jpg.jpeg"},{"uri":"scene_mesh_textured_material_10_map_Kd.jpg.jpeg"},{"uri":"scene_mesh_textured_material_11_map_Kd.jpg.jpeg"},{"uri":"scene_mesh_textured_material_12_map_Kd.jpg.jpeg"},{"uri":"scene_mesh_textured_material_13_map_Kd.jpg.jpeg"},{"uri":"scene_mesh_textured_material_14_map_Kd.jpg.jpeg"},{"uri":"scene_mesh_textured_material_15_map_Kd.jpg.jpeg"},{"uri":"scene_mesh_textured_material_16_map_Kd.jpg.jpeg"}],"samplers":[{"magFilter":9729,"wrapS":10497,"wrapT":10497}],"accessors":[{"bufferView":0,"byteOffset":0,"count":78117,"componentType":5126,"type":"VEC3","min":[-0.080908000469207764,-0.12219900637865067,-0.044804800301790237],"max":[0.0690796971321106,0.078686699271202087,-0.011349700391292572]},{"bufferView":0,"byteOffset":937404,"count":85084,"componentType":5126,"type":"VEC3","min":[-0.0809376984834671,-0.10355900228023529,-0.044716902077198029],"max":[0.070427104830741882,0.075842797756195068,-0.012727600522339344]},{"bufferView":0,"byteOffset":1958412,"count":68115,"componentType":5126,"type":"VEC3","min":[-0.080924898386001587,-0.12024800479412079,-0.044949851930141449],"max":[0.070914208889007568,0.08511333167552948,-0.01171290036290884]},{"bufferView":0,"byteOffset":2775792,"count":55259,"componentType":5126,"type":"VEC3","min":[-0.080890901386737823,-0.12165001034736633,-0.041959099471569061],"max":[0.069535695016384125,0.06714940071105957,-0.01207320112735033]},{"bufferView":0,"byteOffset":3438900,"count":50798,"componentType":5126,"type":"VEC3","min":[-0.080938704311847687,-0.095361076295375824,-0.044866699725389481],"max":[0.062633804976940155,0.081914201378822327,-0.011100400239229202]},{"bufferView":0,"byteOffset":4048476,"count":43493,"componentType":5126,"type":"VEC3","min":[-0.080822303891181946,-0.096828393638134,-0.044647201895713806],"max":[0.060784902423620224,0.075837701559066772,-0.012498500756919384]},{"bufferView":0,"byteOffset":4570392,"count":35244,"componentType":5126,"type":"VEC3","min":[-0.072801105678081512,-0.10688407719135284,-0.044743403792381287],"max":[0.064724430441856384,0.076404303312301636,-0.013897500932216644]},{"bufferView":0,"byteOffset":4993320,"count":27276,"componentType":5126,"type":"VEC3","min":[-0.074519306421279907,-0.0924208015203476,-0.042528338730335236],"max":[0.0697702094912529,0.072516627609729767,-0.012505300343036652]},{"bufferView":0,"byteOffset":5320632,"count":29956,"componentType":5126,"type":"VEC3","min":[-0.069908097386360168,-0.086150519549846649,-0.043887700885534286],"max":[0.064901605248451233,0.074993893504142761,-0.010919200256466866]},{"bufferView":0,"byteOffset":5680104,"count":27211,"componentType":5126,"type":"VEC3","min":[-0.056157104671001434,-0.093332380056381226,-0.04456300288438797],"max":[0.016659900546073914,0.080106377601623535,-0.01093320082873106]},{"bufferView":0,"byteOffset":6006636,"count":30408,"componentType":5126,"type":"VEC3","min":[-0.0809280052781105,-0.098304934799671173,-0.044847901910543442],"max":[0.0739559680223465,0.079043999314308167,-0.013587700203061104]},{"bufferView":0,"byteOffset":6371532,"count":21729,"componentType":5126,"type":"VEC3","min":[-0.080924801528453827,-0.10266000777482986,-0.041115004569292068],"max":[0.069563910365104675,0.06944979727268219,-0.013922900892794132]},{"bufferView":0,"byteOffset":6632280,"count":14784,"componentType":5126,"type":"VEC3","min":[-0.077806606888771057,-0.027265200391411781,-0.041984003037214279],"max":[0.06150500476360321,0.067447803914546967,-0.012753300368785858]},{"bufferView":0,"byteOffset":6809688,"count":24742,"componentType":5126,"type":"VEC3","min":[-0.0809285044670105,-0.11436764150857925,-0.038693804293870926],"max":[0.042552001774311066,0.02614160068333149,-0.012705100700259209]},{"bufferView":0,"byteOffset":7106592,"count":8520,"componentType":5126,"type":"VEC3","min":[-0.067632108926773071,-0.031182680279016495,-0.04062260314822197],"max":[0.075055263936519623,0.032195702195167542,-0.01255939994007349]},{"bufferView":0,"byteOffset":7208832,"count":24093,"componentType":5126,"type":"VEC3","min":[-0.080873399972915649,-0.12014900892972946,-0.037013303488492966],"max":[0.0047972002066671848,0.035241901874542236,-0.014143700711429119]},{"bufferView":0,"byteOffset":7497948,"count":1428,"componentType":5126,"type":"VEC3","min":[-0.0784883052110672,0.070674009621143341,-0.044936999678611755],"max":[-0.051576003432273865,0.084680795669555664,-0.041222602128982544]},{"bufferView":0,"byteOffset":7515084,"count":1022,"componentType":5126,"type":"VEC3","min":[-0.080857612192630768,0.058881461620330811,-0.044949851930141449],"max":[0.0565420500934124,0.08511333167552948,-0.035204187035560608]},{"bufferView":0,"byteOffset":7527348,"count":1423,"componentType":5126,"type":"VEC3","min":[0.056515712291002274,-0.021134916692972183,-0.03832148015499115],"max":[0.075055263936519623,0.059088200330734253,-0.032265614718198776]},{"bufferView":0,"byteOffset":7544424,"count":976,"componentType":5126,"type":"VEC3","min":[-0.068714499473571777,-0.12097658216953278,-0.034951597452163696],"max":[0.075055263936519623,-0.020792258903384209,-0.032265614718198776]},{"bufferView":1,"byteOffset":0,"count":78117,"componentType":5126,"type":"VEC2"},{"bufferView":1,"byteOffset":624936,"count":85084,"componentType":5126,"type":"VEC2"},{"bufferView":1,"byteOffset":1305608,"count":68115,"componentType":5126,"type":"VEC2"},{"bufferView":1,"byteOffset":1850528,"count":55259,"componentType":5126,"type":"VEC2"},{"bufferView":1,"byteOffset":2292600,"count":50798,"componentType":5126,"type":"VEC2"},{"bufferView":1,"byteOffset":2698984,"count":43493,"componentType":5126,"type":"VEC2"},{"bufferView":1,"byteOffset":3046928,"count":35244,"componentType":5126,"type":"VEC2"},{"bufferView":1,"byteOffset":3328880,"count":27276,"componentType":5126,"type":"VEC2"},{"bufferView":1,"byteOffset":3547088,"count":29956,"componentType":5126,"type":"VEC2"},{"bufferView":1,"byteOffset":3786736,"count":27211,"componentType":5126,"type":"VEC2"},{"bufferView":1,"byteOffset":4004424,"count":30408,"componentType":5126,"type":"VEC2"},{"bufferView":1,"byteOffset":4247688,"count":21729,"componentType":5126,"type":"VEC2"},{"bufferView":1,"byteOffset":4421520,"count":14784,"componentType":5126,"type":"VEC2"},{"bufferView":1,"byteOffset":4539792,"count":24742,"componentType":5126,"type":"VEC2"},{"bufferView":1,"byteOffset":4737728,"count":8520,"componentType":5126,"type":"VEC2"},{"bufferView":1,"byteOffset":4805888,"count":24093,"componentType":5126,"type":"VEC2"},{"bufferView":1,"byteOffset":4998632,"count":1428,"componentType":5126,"type":"VEC2"},{"bufferView":2,"byteOffset":0,"count":1022,"componentType":5121,"type":"VEC4","normalized":true},{"bufferView":2,"byteOffset":4088,"count":1423,"componentType":5121,"type":"VEC4","normalized":true},{"bufferView":2,"byteOffset":9780,"count":976,"componentType":5121,"type":"VEC4","normalized":true},{"bufferView":3,"byteOffset":0,"count":222159,"componentType":5125,"type":"SCALAR"},{"bufferView":3,"byteOffset":888636,"count":357756,"componentType":5125,"type":"SCALAR"},{"bufferView":3,"byteOffset":2319660,"count":310173,"componentType":5125,"type":"SCALAR"},{"bufferView":3,"byteOffset":3560352,"count":264339,"componentType":5125,"type":"SCALAR"},{"bufferView":3,"byteOffset":4617708,"count":248886,"componentType":5125,"type":"SCALAR"},{"bufferView":3,"byteOffset":5613252,"count":218874,"componentType":5125,"type":"SCALAR"},{"bufferView":3,"byteOffset":6488748,"count":178464,"componentType":5125,"type":"SCALAR"},{"bufferView":3,"byteOffset":7202604,"count":139890,"componentType":5125,"type":"SCALAR"},{"bufferView":3,"byteOffset":7762164,"count":156069,"componentType":5125,"type":"SCALAR"},{"bufferView":3,"byteOffset":8386440,"count":143478,"componentType":5125,"type":"SCALAR"},{"bufferView":3,"byteOffset":8960352,"count":161940,"componentType":5125,"type":"SCALAR"},{"bufferView":3,"byteOffset":9608112,"count":116589,"componentType":5125,"type":"SCALAR"},{"bufferView":3,"byteOffset":10074468,"count":78774,"componentType":5125,"type":"SCALAR"},{"bufferView":3,"byteOffset":10389564,"count":134220,"componentType":5125,"type":"SCALAR"},{"bufferView":3,"byteOffset":10926444,"count":44859,"componentType":5125,"type":"SCALAR"},{"bufferView":3,"byteOffset":11105880,"count":134589,"componentType":5125,"type":"SCALAR"},{"bufferView":3,"byteOffset":11644236,"count":7350,"componentType":5125,"type":"SCALAR"},{"bufferView":3,"byteOffset":11673636,"count":3063,"componentType":5125,"type":"SCALAR"},{"bufferView":3,"byteOffset":11685888,"count":4242,"componentType":5125,"type":"SCALAR"},{"bufferView":3,"byteOffset":11702856,"count":2892,"componentType":5125,"type":"SCALAR"}],"bufferViews":[{"buffer":0,"byteOffset":0,"byteLength":7556136,"byteStride":12,"target":34962},{"buffer":0,"byteOffset":7556136,"byteLength":5010056,"byteStride":8,"target":34962},{"buffer":0,"byteOffset":12566192,"byteLength":13684,"byteStride":4,"target":34962},{"buffer":0,"byteOffset":12579876,"byteLength":11714424,"target":34963}],"buffers":[{"byteLength":24294300,"uri":"Kutuphane.bin"}]}